<?xml version="1.0" encoding="UTF-8"?>
<svg viewBox="0 0 1148.6 240.22" xmlns="http://www.w3.org/2000/svg">
<title>Ger·Man</title>

<g data-name="Capa 1">
<path transform="translate(-19.61 -2.73)" d="M197.48,125.51a83.81,83.81,0,0,1-4.2,39.16,91.42,91.42,0,0,1-22,34c-12.05,11.91-28.83,19.32-45.32,23-12.9,2.88-26.52,3.25-39.33-.32A103.88,103.88,0,0,1,49,201.8c-10.82-8.82-19.7-20.28-24.33-33.59a75.67,75.67,0,0,1-2.45-8.06c-3.41-15.21-3.52-29.6.34-44.54,3.71-14.35,13.09-28.63,24.56-39C59.72,65.19,76.19,57.37,92.74,54c12.71-2.63,26.39-3.22,39.13.36,17.37,5.65,36.7,12.32,47.3,28.36q-21,17.91-41.57,36.22c-7.75-4-14.28-5.51-19.51-4.42a19.71,19.71,0,0,0-4.27,1.44,26.86,26.86,0,0,0-10,14.49,20.77,20.77,0,0,0,4.93,11.48Q153,132.94,197.48,125.51Zm-2,2.65q-43.58,7.76-86.83,17a9.89,9.89,0,0,1-5.2-5.68q-.36-.83-1.89-7.84.74-9.66,9.71-16.77a26.64,26.64,0,0,1,6.57-2.28A26,26,0,0,1,137,115.8c2.42-2.4,9.06-8.17,20-17,8.2-6.58,14.43-12.46,18.44-17.7A78.45,78.45,0,0,0,136.71,58.2a103,103,0,0,0-46.19-.91C79,59.78,69,64.35,58.4,70.56c-13.66,8-25,22.11-30.78,36.31s-9.06,29.65-5.45,45A93.1,93.1,0,0,0,41.9,192C51.18,203,65,212,79.21,216.88a90.65,90.65,0,0,0,48.19,2.34c12.06-2.7,24.11-7.54,34-15.22,11.63-9.06,21.75-21.14,27.49-34.26S198.09,143.05,195.52,128.16Zm-2.71,3.68c.87,13.14-2.36,26.26-8.16,37.95-6,12.14-14.79,23.73-25.5,31.26-10.56,7.41-20.46,11.55-33.18,14.89-16.14,4.24-34.54,2.56-50.22-3.9a85.55,85.55,0,0,1-31.36-22.1,79.57,79.57,0,0,1-17.54-33.15,81.77,81.77,0,0,1-2.38-16.2C23.73,125.18,29,111.59,36.2,99S55.46,74.53,69.06,68.3a110.31,110.31,0,0,1,22.2-7.59A95.2,95.2,0,0,1,134,61a79.46,79.46,0,0,1,36.76,20.31c-3.44,4.19-8.94,9.28-16.43,15.19-8.57,6.76-14.29,11.64-17.12,14.58a34.82,34.82,0,0,0-20.49-1.53,38.77,38.77,0,0,0-7.86,2.55,29.8,29.8,0,0,0-10.75,19c.72,3.32,1.45,6.71,2.35,9.89a10.33,10.33,0,0,0,7.31,7.55Q150.14,139.49,192.81,131.84Zm-8.48,17-5-.7c-1.45,14.91-9.37,26.22-19.15,36.09-9.43,9.51-22.36,16.68-35.31,21.72.33,1.51.49,2.26.81,3.77,3.92-.84,5.87-1.25,9.79-2.07,12.73-4.6,23.91-12.91,32.67-23S183.23,162.26,184.33,148.84Z"/>
<path transform="translate(-19.61 -2.73)" d="M378.84,87.78q-50.22,4.69-100.19,11.34-3.3,4.51-2.29,11.81a24.34,24.34,0,0,0,4.32,11.25q17.58-1.61,35.19-2.93l2.1,17.4q-16.74,2.85-33.42,5.86a20.27,20.27,0,0,0-.77,6.47,48.78,48.78,0,0,0,.79,7.14c.6,3.45,1,5.82,1.15,7.09,10.84-.52,21.64-1.62,32.4-2.76C329,159.29,340,158,350.9,156.71s22-2.42,33-3.26q1.39,15.18,2.77,30.35-84.8,8-168.74,22.08-14.69-86-29.39-172,90.73-15.24,182.29-23.85Q374.85,48.91,378.84,87.78Zm6.06,94.08c-.93-10.05-1.39-15.07-2.31-25.12q-48.82,4.27-97.41,10.44c-1.63-10.32-2.45-15.47-4.08-25.79a68.34,68.34,0,0,1,17.21-4.06c11.11-1.37,17.13-2,17.85-2.05-.67-5.5-1-8.25-1.67-13.74q-18.23,1.41-36.43,3.12a53.39,53.39,0,0,1-4-14q-1.08-7.81,1-13.22,50.4-6.78,101-11.57-3.34-36.29-6.68-72.57-89.17,8.46-177.5,23.18,13.59,83.52,27.25,167Q301.67,189.76,384.9,181.86Zm-3.28-2.69Q301.68,186.88,222.5,200L195.41,39Q280.12,25,365.5,16.71q3.58,33.09,7.14,66.18-50.33,4.85-100.41,11.63c-1.14,1.5-1.71,2.25-2.84,3.76.27,1,.9,6.21,2,15.46.74,6.36,2.24,11.18,4.41,14.42q17.91-1.6,35.86-2.92c.32,2.64.48,4,.81,6.61q-17.13,2.94-34.22,6.05a87.3,87.3,0,0,0,.42,17.45q1.43,10.23,5.81,15.82,47.16-6.36,94.5-10.93C380,167.81,380.56,171.6,381.62,179.17Zm-98.3-143c-.25-1.87-.37-2.81-.61-4.69q-40.44,5-80.69,11.22,5.23,31.64,10.48,63.25l4-.66q-3.81-28.48-7.6-57Q246,41.69,283.32,36.12Z"/>
<path transform="translate(-19.61 -2.73)" d="M555.88,171.54c-38,1.66-75.92,4.23-113.81,6.7q-24.33,1.57-48.72,2.86-7.5-85.33-15-170.66a174.56,174.56,0,0,0,19.48-.58C408.88,9,420,7.57,431,6.22s22.31-2.6,33.45-3.17c15.13-.78,31.26-.4,45.94,4.07,14.11,4.3,27.72,12.45,36.55,24.56,5.26,6.92,7.91,15.19,8,24.77a42.44,42.44,0,0,1-5.62,22.34,62.31,62.31,0,0,1-24.51,23c-9.72,5.17-20.37,8.29-30.82,11.55Q525.48,141.89,555.88,171.54Zm-4-121.92C546.8,32.93,534.46,18.18,518,12c-16.79-6.31-36.35-7.11-54.12-6.08C454,6.46,444,7.4,434.12,8.39c-9.68,1-19.42,2.08-29.13,2.84a156.83,156.83,0,0,1-23.3.32q7,83.72,14,167.41,77.82-6.53,155.85-7.93-30.19-29.37-61.38-57.65c-.06-1.26-.08-1.89-.14-3.15a74.92,74.92,0,0,0,37.8-12.83C542,88.34,552.65,73,552.38,55.75A50.92,50.92,0,0,0,551.92,49.62Zm-3.68,15.29c-1.91,8.77-9,18.33-15.42,24-6.6,5.79-16,11.75-24.68,14.54-1.91,1-5.8,1.86-11.59,2.53-4.94.56-8.5,1.81-10.6,3.77.39,2.15.59,3.23,1,5.39q28.79,25.93,56.71,52.75-72.33,1.56-144.38,7.47Q392,95.77,384.76,16.21c5.48,0,11.52-.25,18.08-.77,10.29-.82,20.61-2.16,30.85-3.33s20.85-2.55,31.09-2.94c13.78-.52,27.82-.19,41.43,3.34,13,3.38,27.36,10.54,34.18,20.31,6.14,8.78,8.58,19.06,8.66,24.9A27.89,27.89,0,0,1,548.24,64.91Zm-18,97.79q-19.23-18-38.81-35.52l-7.4.32q15.84,14.63,31.46,29.48c-2.71.66-7.5,1-14.21,1.19-6.12.18-10.84,1-14,2.15l.15,3.33Q508.84,163,530.23,162.7Zm11.4-104-4.09.08c-.63,9.81-8.65,16.92-15,23.31-1.43,1.79-5.62,4-12.51,6.5-5.65,2.08-8.46,4.68-8.35,7.83a12.69,12.69,0,0,0,.47,2.79c7.64-3.37,11.47-5,19.16-8.33a43.14,43.14,0,0,0,15.11-14.12Q542.15,68,541.63,58.73ZM522,160.11l-1.25,0c0-.56,0-.84,0-1.4l1.25,0Z"/>
<path transform="translate(-19.61 -2.73)" d="m577.93 69.55a16.36 16.36 0 0 1 11.74 4.64 15.23 15.23 0 0 1 0 22.34 17.3 17.3 0 0 1-23.32 0.06 15.43 15.43 0 0 1-0.18-22.33 16.27 16.27 0 0 1 11.76-4.71zm0 4.38a11.67 11.67 0 0 0-8.47 3.45 10.93 10.93 0 0 0 0.1 16 11.79 11.79 0 0 0 8.44 3.32 11.92 11.92 0 0 0 8.33-3.33 10.76 10.76 0 0 0 0-16 11.78 11.78 0 0 0-8.39-3.44zm5.18 18.21a8.18 8.18 0 0 1-5.85 2.29 8.49 8.49 0 0 1-6.06-2.25 7.71 7.71 0 0 1-2.42-5.77 7.4 7.4 0 0 1 2.36-5.62c4.86 4.53 7.22 6.8 11.98 11.35zm-10.67-10.14a6.15 6.15 0 0 0-1.81 4.39 6 6 0 0 0 2 4.46 6.6 6.6 0 0 0 4.68 1.82 6.86 6.86 0 0 0 4.58-1.77c-3.79-3.56-5.67-5.34-9.45-8.9z"/>
<path transform="translate(-19.61 -2.73)" d="M786.43,183.37q-88.86-8-178-9.29.95-84.51,1.88-169,46.66,43.22,91,88.79C718,80.73,734.52,67.2,751,53.81q25.37-20.54,51.27-40.52Q794.38,98.33,786.43,183.37Zm-2.25-2.67q7.49-81,15-162-48.82,37.19-95.65,76.81l-4-.21C685.43,80.6,671.28,65.88,657,51.6s-29-28.21-45.07-40.4Q611,91.42,610,171.65,697.31,173,784.18,180.7Zm-2.37-3.21Q698,170.11,614,168.72q-.15-37.66.3-75.33T616,17.91q41.4,39.25,80.89,80.38l8.78.46q43.5-37.2,88.72-72.26Q788.15,102,781.81,177.49Zm-11.55-12.62q1.32-26.09,2.61-52.17l-2.91-.24q-2.73,23-5.43,46c-4,1.19-9.5,1.51-16.38,1-1.42-.11-3.54-.38-6.21-.63s-4.75-.34-6.05-.43a66,66,0,0,0-10.73,0l-.25,3.85Q747.61,163.35,770.26,164.87Z"/>
<path transform="translate(-19.61 -2.73)" d="m978.52 210.36q-93.35-16.94-187.73-26.22 57.81-80.26 121.36-156c13.75 29.4 25.11 59.88 35.72 90.48 10.54 30.38 20.38 61.18 30.65 91.74zm-4.14-4c-9-29.35-19.13-58.4-29.38-87.34s-21.26-58-33.49-86.39q-61.57 73-117.81 150.14c20.29 1.81 40.57 4.17 60.71 6.77s40.29 5.51 60.38 8.41c19.82 2.9 39.71 5.76 59.59 8.44zm-4.67-3.16q-84.13-14.85-169.05-23.59 52.62-71.86 109.87-140c22.05 53.64 42.58 108.01 59.18 163.62zm-8.13-7.71c-5.26-15.85-11.14-31.49-17-47.11l-4.34 1.42c0.7 4 2.8 10.82 6.18 20.38 3 8.41 4.59 15 4.88 19.66q-14.75-1.63-29.51-3c-0.22 1.46-0.34 2.18-0.57 3.64 0.83 0.13 7.55 1.18 20.05 3.4 8.13 1.44 14.93 2.03 20.31 1.64z"/>
<path transform="translate(-19.61 -2.73)" d="m1124.8 243q-70.72-18-142.36-31.56 15.53-83.44 31.1-166.86 35.34 52.74 67.92 107.18c4.57-15.29 8.64-30.75 12.58-46.18s7.8-31.17 12-46.68q31.17 7.18 62.17 15.06-21.71 84.49-43.41 169.04zm-0.12-2.38q21-81.87 42-163.74-29.76-7.56-59.66-14.47-11.7 47.37-23.36 94.74c-12.14-17.42-23.41-35.5-34.69-53.43s-23-35.95-34.66-53.78q-14.93 79.8-29.86 159.61 70.59 13.38 140.23 31.02zm-1.29-4.31q-67.23-16.62-135.24-29.31 14-73.94 27.89-147.86 17.43 26.39 34.17 53.21c11.16 17.91 22.29 35.85 33.88 53.49 5.34-16.34 9.32-33.1 13.14-49.82s7.44-33.68 12.32-50.19q26.6 6.2 53.07 12.87-19.59 78.79-39.23 157.56zm-7.66-12q6.67-28.12 13.32-56.26l-3.21-0.8c-4.56 16.82-10.11 33.38-15.54 49.93q-21.22-4.28-42.5-8.25l-0.85 3.76q24.47 5.45 48.78 11.52z"/>

</g>
</svg>
